# xmcd
#
# Track frame offsets: 
#        150
#        20815
#        38024
#        56407
#        74725
#        98638
#        115134
#        138101
#        157444
#        174782
#        194597
#        211941
#
# Disc length: 3085 seconds
#
# Revision: 0
# Processed by: cddbd v1.5.2PL0 Copyright (c) Steve Scherf et al.
# Submitted via: ExactAudioCopy v0.95b4
#
DISCID=aa0c0b0c
DTITLE=Ilse De Lange - The Great Escape
DYEAR=2006
DGENRE=Soundtrack
TTITLE0=Ilse De Lange - Great Escape
TTITLE1=01. Great Escape - Ilse de Lange  04:35
TTITLE2=02. Live  04:35 - 01. Guus Meewis  03:49
TTITLE3=03. 02. 01. Track01  05:44  03:49  04:05
TTITLE4=04. 03. 02. Track02  04:18  04:05  04:04
TTITLE5=05. 04. 03. Track03  03:35  04:04  05:18
TTITLE6=06. 05. 04. Track04  05:36  05:18  03:39
TTITLE7=07. 06. 05. Track05  04:25  03:39  05:06
TTITLE8=08. 07. 06. Track06  03:06  05:06  04:17
TTITLE9=09. 08. 07. Track07  03:54  04:17  03:51
TTITLE10=10. 09. 08. Track08  05:00  03:51  04:24
TTITLE11=11. 10. 09. Track09  04:48  04:24  03:51
EXTD=
EXTT0=
EXTT1=
EXTT2=
EXTT3=
EXTT4=
EXTT5=
EXTT6=
EXTT7=
EXTT8=
EXTT9=
EXTT10=
EXTT11=
PLAYORDER=
